<svg xmlns="http://www.w3.org/2000/svg" viewBox="0 0 180 180" width="180" height="180">
  <!-- Background -->
  <rect width="180" height="180" rx="40" fill="#3B82F6"/>
  
  <!-- Sun -->
  <circle cx="90" cy="70" r="28" fill="#FDB813"/>
  <g stroke="#FDB813" stroke-width="4" stroke-linecap="round">
    <line x1="90" y1="25" x2="90" y2="35"/>
    <line x1="90" y1="105" x2="90" y2="115"/>
    <line x1="45" y1="70" x2="55" y2="70"/>
    <line x1="125" y1="70" x2="135" y2="70"/>
    <line x1="60" y1="40" x2="67" y2="47"/>
    <line x1="113" y1="93" x2="120" y2="100"/>
    <line x1="120" y1="40" x2="113" y2="47"/>
    <line x1="67" y1="93" x2="60" y2="100"/>
  </g>
  
  <!-- Cloud -->
  <path d="M 50 95 Q 42 95 42 103 Q 42 111 50 111 L 115 111 Q 123 111 123 103 Q 123 95 115 95 Q 115 87 107 87 Q 107 79 99 79 Q 91 79 91 87 Q 83 87 83 95 L 50 95 Z" fill="#FFFFFF" stroke="#E0E7FF" stroke-width="3"/>
  
  <!-- Raindrops -->
  <g fill="#E0E7FF">
    <ellipse cx="65" cy="125" rx="3" ry="6"/>
    <ellipse cx="90" cy="130" rx="3" ry="6"/>
    <ellipse cx="105" cy="125" rx="3" ry="6"/>
  </g>
</svg>
