<svg xmlns="http://www.w3.org/2000/svg" viewBox="0 0 100 100" width="100" height="100">
  <!-- Sun -->
  <circle cx="50" cy="40" r="18" fill="#FDB813"/>
  <g stroke="#FDB813" stroke-width="3" stroke-linecap="round">
    <line x1="50" y1="12" x2="50" y2="18"/>
    <line x1="50" y1="62" x2="50" y2="68"/>
    <line x1="22" y1="40" x2="28" y2="40"/>
    <line x1="72" y1="40" x2="78" y2="40"/>
    <line x1="30" y1="20" x2="34.5" y2="24.5"/>
    <line x1="65.5" y1="55.5" x2="70" y2="60"/>
    <line x1="70" y1="20" x2="65.5" y2="24.5"/>
    <line x1="34.5" y1="55.5" x2="30" y2="60"/>
  </g>
  
  <!-- Cloud -->
  <path d="M 25 55 Q 20 55 20 60 Q 20 65 25 65 L 65 65 Q 70 65 70 60 Q 70 55 65 55 Q 65 50 60 50 Q 60 45 55 45 Q 50 45 50 50 Q 45 50 45 55 L 25 55 Z" fill="#FFFFFF" stroke="#3B82F6" stroke-width="2"/>
  
  <!-- Raindrops -->
  <g fill="#3B82F6">
    <ellipse cx="35" cy="72" rx="2" ry="4"/>
    <ellipse cx="50" cy="75" rx="2" ry="4"/>
    <ellipse cx="58" cy="72" rx="2" ry="4"/>
  </g>
</svg>
